<?xml version="1.0" encoding="UTF-8"?>
<svg version="1.1" xmlns="http://www.w3.org/2000/svg" width="943" height="851">
<path d="M0 0 C1.29032135 -0.00563965 2.5806427 -0.0112793 3.9100647 -0.01708984 C5.33354243 -0.01320109 6.75701961 -0.00910474 8.18049622 -0.00482178 C9.68582834 -0.00753342 11.19115914 -0.01109533 12.69648743 -0.01544189 C16.78668266 -0.02456399 20.87677701 -0.02101803 24.96697402 -0.01468372 C29.27230705 -0.00960331 33.5776317 -0.01432264 37.88296509 -0.01745605 C45.1353153 -0.02109797 52.38762484 -0.01629927 59.63996887 -0.0067749 C67.9573588 0.00402394 76.27465 0.00064808 84.59203738 -0.01042771 C91.77211146 -0.01959813 98.95215632 -0.02073639 106.13223439 -0.01555037 C110.40198674 -0.0124724 114.6716933 -0.01190168 118.94144249 -0.01862335 C211.03903099 -0.14335844 211.03903099 -0.14335844 245.02351379 32.57427979 C258.74416322 47.32596068 265.0416095 65.55269217 264.92585754 85.50396729 C264.92094299 86.51177246 264.91602844 87.51957764 264.91096497 88.55792236 C264.55081015 111.58382041 254.90378016 131.10384371 238.67585754 147.19146729 C236.19140162 149.67592321 235.67426987 150.56870362 235.36335754 154.06646729 C235.65359433 157.76698633 236.4518243 159.26392344 238.61335754 162.25396729 C241.12799709 164.14318703 241.12799709 164.14318703 244.05085754 165.81646729 C262.21553551 177.55330631 272.57455506 194.58164552 278.42195129 215.08990479 C283.23695251 237.73701393 279.9308715 262.61003079 267.61335754 282.25396729 C251.37467365 305.5466894 224.8587226 317.27094746 197.63679504 322.19146729 C183.35779873 324.59465664 169.30951638 325.41044181 154.84455872 325.44683838 C153.06944118 325.45475484 151.2943252 325.4630247 149.51921082 325.47161865 C143.73159784 325.49762591 137.94397831 325.51310903 132.15632629 325.52740479 C130.15701609 325.53277028 128.15770591 325.5381478 126.15839577 325.54353714 C117.8463958 325.56512046 109.53439763 325.5838604 101.22237682 325.59515953 C89.33391167 325.6114333 77.4457713 325.64474596 65.55742854 325.70156038 C57.18011221 325.74022884 48.80288296 325.75978762 40.42547971 325.76508009 C35.42749881 325.7687332 30.42986608 325.78075365 25.43198204 325.81318283 C20.73763911 325.84321467 16.04385617 325.84959287 11.34943771 325.83779907 C9.62810365 325.83757804 7.90674385 325.84590786 6.18549919 325.86345291 C3.83376566 325.88612028 1.48406822 325.87786368 -0.86767578 325.86196899 C-2.18261426 325.86527914 -3.49755274 325.86858929 -4.85233784 325.87199974 C-9.50957805 325.05760316 -11.10445668 323.60823315 -14.38664246 320.25396729 C-15.39226777 317.23709133 -15.51482612 315.2295184 -15.52086353 312.07581615 C-15.5275503 310.45785288 -15.5275503 310.45785288 -15.53437215 308.80720347 C-15.53418779 307.61773169 -15.53400343 306.42825991 -15.53381348 305.20274353 C-15.53749016 303.94259597 -15.54116685 302.68244841 -15.54495496 301.38411456 C-15.55497821 297.87938839 -15.55869226 294.37467935 -15.56134427 290.86994088 C-15.56524628 287.09274004 -15.5748246 283.31555277 -15.58355713 279.5383606 C-15.60332302 270.41381231 -15.61338728 261.28926291 -15.62228492 252.16469857 C-15.62666705 247.86937384 -15.632034 243.57405034 -15.63727379 239.27872658 C-15.65428514 225.00337193 -15.66878029 210.72801806 -15.67602253 196.45265484 C-15.67793246 192.74783515 -15.67985279 189.04301547 -15.68180847 185.3381958 C-15.68229221 184.4173662 -15.68277595 183.49653661 -15.68327435 182.54780308 C-15.69157837 167.62403253 -15.71692195 152.70034204 -15.74938915 137.77660646 C-15.78243926 122.46029282 -15.80046938 107.14401989 -15.80366677 91.8276704 C-15.80583362 83.22579376 -15.81460792 74.62403392 -15.84012794 66.022192 C-15.86180688 58.69807925 -15.8698992 51.37411167 -15.86016116 44.04997047 C-15.85560844 40.31247602 -15.85755868 36.57528126 -15.87692261 32.83782768 C-15.89772885 28.78705363 -15.88759504 24.73694769 -15.87438965 20.68614197 C-15.88535889 19.50336235 -15.89632814 18.32058274 -15.90762979 17.10196131 C-15.85882473 10.9225333 -15.80306965 6.79807379 -11.38664246 2.25396729 C-7.6361545 0.08563563 -4.27876887 0.00288228 0 0 Z M73.61335754 72.25396729 C72.4251321 74.63041818 72.46158023 76.139332 72.42048645 78.79205322 C72.40442352 79.7335321 72.3883606 80.67501099 72.37181091 81.64501953 C72.32734902 85.95769552 72.28628666 90.27021717 72.26325989 94.58306885 C72.2467097 96.85661054 72.2194323 99.13010041 72.18122864 101.40338135 C72.12641061 104.68197618 72.10457661 107.95935061 72.08992004 111.23834229 C72.05591599 112.75739166 72.05591599 112.75739166 72.02122498 114.30712891 C72.03495604 118.9037858 72.05685044 122.21117312 75.02107239 125.87994385 C78.70899828 129.25735875 80.40549225 129.38335285 85.30964661 129.4151001 C87.10356842 129.42951141 87.10356842 129.42951141 88.93373108 129.44421387 C90.23566406 129.44846375 91.53759705 129.45271362 92.87898254 129.45709229 C93.54369316 129.45991966 94.20840378 129.46274704 94.89325714 129.4656601 C98.42365925 129.4806758 101.95402039 129.48988501 105.48445129 129.49420166 C109.09505467 129.49963295 112.70527062 129.52353836 116.31575394 129.55217361 C119.1197356 129.57102795 121.92362914 129.57601791 124.72766876 129.57753754 C126.69369919 129.58195678 128.65968202 129.60050847 130.62562561 129.61950684 C143.3372235 129.58858645 157.25915216 128.16155702 167.41804504 119.76177979 C172.78508105 114.1811304 175.73736691 106.39243291 176.05085754 98.69146729 C175.63126428 90.87304606 173.30483277 82.83599107 167.61335754 77.25396729 C156.44396297 68.54840975 143.60441504 67.78282411 129.96101379 67.82037354 C128.48798383 67.81580024 127.01495599 67.81049131 125.54193115 67.80448914 C122.48028288 67.79562771 119.41889654 67.79790613 116.35725403 67.80792236 C112.44097128 67.81948962 108.52557992 67.79904858 104.6094141 67.77000523 C101.57844358 67.75165261 98.54768808 67.75193225 95.51667595 67.75764275 C94.07222161 67.75779562 92.6277524 67.75177941 91.18335152 67.73935127 C89.16926677 67.72443845 87.15503314 67.73774986 85.14094543 67.7522583 C83.42652 67.75250755 83.42652 67.75250755 81.67745972 67.75276184 C77.95288188 68.3620035 76.29354276 69.64951872 73.61335754 72.25396729 Z M73.76261902 198.1254425 C72.37251387 200.70002916 72.23307306 202.39120989 72.22517395 205.31036377 C72.21571747 206.31498154 72.20626099 207.3195993 72.19651794 208.35466003 C72.20259064 209.43389236 72.20866333 210.51312469 72.21492004 211.62506104 C72.21204987 212.73954117 72.20917969 213.8540213 72.20622253 215.00227356 C72.20418172 217.35839343 72.20971274 219.71453024 72.22224426 222.07061768 C72.23828176 225.67443835 72.2224031 229.27713488 72.20320129 232.88092041 C72.20518402 235.17063643 72.2090283 237.46035174 72.21492004 239.75006104 C72.20884735 240.82726913 72.20277466 241.90447723 72.19651794 243.014328 C72.13194646 250.19309809 72.13194646 250.19309809 75.61335754 256.25396729 C79.23663903 258.6631499 82.5490857 258.51347077 86.82185364 258.52862549 C87.54122101 258.53373642 88.26058838 258.53884735 89.00175476 258.54411316 C91.38018636 258.55800897 93.75832765 258.55705052 96.13679504 258.55474854 C97.80147915 258.55863931 99.46616227 258.56297476 101.13084412 258.56773376 C104.62618721 258.57519876 108.12142935 258.57490549 111.61677551 258.56964111 C116.05910048 258.56388707 120.50100296 258.58067666 124.94325829 258.60398579 C128.38719534 258.61885593 131.83103423 258.61957627 135.27499771 258.61647606 C136.91017611 258.616984 138.54536079 258.62212071 140.18050766 258.63228798 C154.33244719 258.70939535 170.56075226 258.39788303 181.67585754 248.39849854 C188.33072814 241.23064833 190.98598924 233.44889526 190.82429504 223.71490479 C190.14388456 215.77678245 187.32190132 208.86596063 181.61335754 203.25396729 C168.24899258 192.74829002 151.04111031 193.09249713 134.85163879 193.05084229 C134.10613455 193.04801491 133.3606303 193.04518753 132.59253502 193.04227448 C128.65635713 193.0273778 124.72021508 193.01808514 120.78401184 193.01373291 C116.7322906 193.00822536 112.6809015 192.9841226 108.62928486 192.95576096 C105.49709102 192.93711195 102.36497744 192.93192804 99.23273277 192.93039703 C97.73885954 192.92738111 96.24498737 192.91938853 94.7511692 192.90621185 C92.66241207 192.88908362 90.57447159 192.89104611 88.485672 192.89752197 C86.70770988 192.89205353 86.70770988 192.89205353 84.89382935 192.88647461 C80.27598304 193.40378578 77.04270159 194.80860808 73.76261902 198.1254425 Z " fill="#000000" transform="translate(196.3866424560547,205.74603271484375)"/>
<path d="M0 0 C7.40141002 -0.10173363 14.80263853 -0.1716057 22.20458984 -0.21972656 C24.72060891 -0.23979516 27.23658161 -0.2670563 29.75244141 -0.30175781 C33.37674428 -0.35048312 37.00042841 -0.37301722 40.625 -0.390625 C41.74302002 -0.41127014 42.86104004 -0.43191528 44.01293945 -0.45318604 C51.34952603 -0.45527615 57.07848109 0.43245638 62.6385498 5.49064636 C67.23885549 10.28273226 70.28442449 16.3601897 73.48904419 22.12042236 C74.88040206 24.62122926 76.28882245 27.112292 77.69606018 29.60418701 C78.41783171 30.88270541 79.13872623 32.1617193 79.85874939 33.44122314 C83.19829668 39.37208167 86.61965937 45.25354233 90.0625 51.125 C94.86858275 59.33419837 99.63376453 67.56569117 104.375 75.8125 C110.14253201 85.83869502 116.01900942 95.79587679 121.93774414 105.73339844 C126.47057148 113.3647327 130.90576346 121.04526348 135.28967285 128.76278687 C142.64985886 141.71412398 142.64985886 141.71412398 150.1875 154.5625 C150.60878174 155.28832275 151.03006348 156.01414551 151.46411133 156.76196289 C153.81292359 160.64838739 155.79529031 163.16595862 160 165 C164.44721704 165.39707295 168.11714175 165.32971495 172 163 C172.69674603 161.34568226 173.35790505 159.67628646 174 158 C175.03670475 156.07155054 176.10774266 154.1613601 177.203125 152.265625 C177.84668945 151.14679932 178.49025391 150.02797363 179.15332031 148.87524414 C179.49480103 148.28486359 179.83628174 147.69448303 180.18811035 147.08621216 C182.00735989 143.94037857 183.81574627 140.78830836 185.625 137.63671875 C185.99361145 136.99516342 186.3622229 136.35360809 186.74200439 135.69261169 C190.29113034 129.50848571 193.77693331 123.28962874 197.25 117.0625 C201.96678095 108.61273332 206.728885 100.19121137 211.54101562 91.79541016 C215.13479125 85.52291869 218.6985704 79.23405354 222.25 72.9375 C227.44740676 63.7238439 232.68884118 54.53582659 237.95019531 45.35858154 C241.66757732 38.87314171 245.36106974 32.37621994 248.98828125 25.83984375 C249.62193604 24.69950684 250.25559082 23.55916992 250.90844727 22.38427734 C252.10454281 20.22677026 253.29667025 18.0670568 254.48413086 15.90478516 C261.53073399 3.19189593 261.53073399 3.19189593 267 1 C269.64254761 0.73257446 269.64254761 0.73257446 272.68310547 0.70947266 C273.82464081 0.69671295 274.96617615 0.68395325 276.14230347 0.67080688 C277.3715152 0.66858124 278.60072693 0.66635559 279.8671875 0.6640625 C281.13466827 0.6574057 282.40214905 0.6507489 283.70803833 0.64389038 C286.38964886 0.63376331 289.07085397 0.62820826 291.75244141 0.62939453 C295.17786261 0.6295976 298.60245304 0.60230406 302.02767754 0.56785011 C305.30748263 0.5401785 308.58728155 0.54143044 311.8671875 0.5390625 C313.7049324 0.51750595 313.7049324 0.51750595 315.57980347 0.49551392 C320.43404465 0.5215362 324.12861225 0.63334027 328.63330078 2.52880859 C334.68864101 8.85149828 334.4360904 16.63782473 334.40113831 24.88648987 C334.40793498 26.06853294 334.41473164 27.25057601 334.42173427 28.46843857 C334.43738827 31.7320003 334.439698 34.99524853 334.43615115 38.25883567 C334.43553693 41.7851417 334.45211579 45.31137478 334.46632385 48.83764648 C334.49119428 55.73844187 334.49948603 62.63916035 334.50116099 69.53999681 C334.50258825 75.14902506 334.50876132 80.75802802 334.51826286 86.36704826 C334.54466463 102.27688199 334.55852311 118.1866551 334.55627144 134.09651089 C334.55615157 134.95339033 334.5560317 135.81026976 334.5559082 136.69311523 C334.55578556 137.55104272 334.55566292 138.4089702 334.55553656 139.29289549 C334.55431634 153.20696066 334.58305049 167.12078262 334.6253233 181.03477741 C334.66840707 195.3286087 334.68913447 209.6223213 334.68654197 223.91621917 C334.68554608 231.93851405 334.69378694 239.96055364 334.72607613 247.98278999 C334.75338094 254.81019526 334.75992552 261.6372294 334.73954786 268.4646656 C334.72974791 271.94728155 334.72959451 275.4291853 334.7556076 278.91173363 C334.77869117 282.6886267 334.7648886 286.46364244 334.74171448 290.24049377 C334.76486051 291.88844959 334.76486051 291.88844959 334.78847414 293.56969744 C334.70398731 299.7897098 333.92215021 303.30200562 329.4817366 307.78451389 C326.45360706 310.26852447 324.12487205 310.15111514 320.28442383 310.20874023 C318.48664238 310.23767616 318.48664238 310.23767616 316.65254211 310.26719666 C311.15892784 310.32483676 305.66546432 310.37453725 300.17163086 310.4050293 C297.27404243 310.4228104 294.37743319 310.45757416 291.48022461 310.50756836 C287.9764688 310.56795464 284.47361745 310.59852991 280.96936607 310.60820198 C278.99341565 310.62086066 277.01772317 310.66287123 275.04219055 310.70542908 C265.00106368 310.68248616 265.00106368 310.68248616 260.69018555 307.08618164 C257.0078144 303.28933038 256.84186218 300.59821372 256.69677734 295.33374023 C256.67700459 294.64671335 256.65723183 293.95968647 256.63685989 293.25184059 C256.57288438 290.9583676 256.51657114 288.66478333 256.4609375 286.37109375 C256.42976397 285.17860929 256.42976397 285.17860929 256.39796066 283.96203423 C256.06772443 271.32062236 255.89269661 258.68024336 255.7890625 246.03515625 C255.7746082 244.37429764 255.76010214 242.71343949 255.74554443 241.05258179 C255.6879215 234.32521016 255.63125791 227.59790798 255.59863281 220.87036133 C255.57772103 216.65954607 255.5425505 212.44905934 255.49787521 208.23843193 C255.4838047 206.66005711 255.47501321 205.0816253 255.47182083 203.50319099 C255.46692047 201.32606807 255.44382121 199.14984109 255.41650391 196.97290039 C255.40841705 195.74245499 255.4003302 194.51200958 255.39199829 193.24427795 C254.96583075 189.71720653 254.1115164 187.82731027 252 185 C250.02528887 183.6687614 250.02528887 183.6687614 247.75 183 C247.02296875 182.731875 246.2959375 182.46375 245.546875 182.1875 C241.834964 181.91423048 239.0279296 182.95443771 236 185 C234.21320007 187.34309635 232.91541462 189.36610672 231.5625 191.9375 C230.70463873 193.47798247 229.84654894 195.01833768 228.98828125 196.55859375 C228.28372803 197.84805908 228.28372803 197.84805908 227.56494141 199.16357422 C225.19843956 203.45281267 222.74333026 207.69024621 220.29956055 211.93579102 C214.96393928 221.20673837 209.69861762 230.51583559 204.49682617 239.86254883 C199.56086446 248.72796378 194.58669389 257.56882828 189.4375 266.3125 C188.96086914 267.13685547 188.48423828 267.96121094 187.99316406 268.81054688 C185.0583659 273.73599461 182.25960868 277.37019566 177 280 C172.48772476 280.28208415 167.97180603 280.31366669 163.4519043 280.35009766 C161.94751499 280.36664188 160.4432038 280.39391251 158.93920898 280.43212891 C156.76504959 280.48706208 154.59272978 280.5087937 152.41796875 280.5234375 C151.11625732 280.54325684 149.8145459 280.56307617 148.47338867 280.58349609 C142.94292486 279.65443104 140.90990806 276.25210918 137.74609375 271.8984375 C136.96993409 270.72832817 136.20076049 269.55356399 135.4375 268.375 C135.01114258 267.7260376 134.58478516 267.0770752 134.14550781 266.40844727 C129.7482837 259.68323429 125.46990695 252.88165739 121.1953125 246.078125 C117.85865844 240.76840305 114.49414198 235.47665037 111.125 230.1875 C110.5386377 229.26678711 109.95227539 228.34607422 109.34814453 227.39746094 C108.1566486 225.52664616 106.96507946 223.65587801 105.7734375 221.78515625 C104.03529282 219.05542684 102.29861894 216.32476815 100.5625 213.59375 C94.39044675 203.8858991 88.20410687 194.18740163 82 184.5 C75.21971821 173.91293014 68.46257897 163.31135854 61.71777344 152.70166016 C59.39668223 149.05112074 57.07433973 145.40137982 54.75073242 141.75244141 C53.59266126 139.93176169 52.43654125 138.1098393 51.2824707 136.28662109 C48.22421264 131.46080162 45.12734771 126.66578408 41.97265625 121.90234375 C41.31845703 120.90396484 40.66425781 119.90558594 39.99023438 118.87695312 C38.73145387 116.95753604 37.46108232 115.04565678 36.17773438 113.14257812 C35.61505859 112.27955078 35.05238281 111.41652344 34.47265625 110.52734375 C33.97000244 109.77187256 33.46734863 109.01640137 32.94946289 108.23803711 C31.74002875 105.38720585 32.11320765 103.92450252 33 101 C33.77580968 99.08885908 34.5911841 97.19348104 35.4375 95.3125 C43.18931935 76.87392391 40.9995694 56.82533805 33.57055664 38.60327148 C26.54754438 22.37287074 17.7468536 12.48522898 3.03515625 3.0390625 C2.03355469 2.36617187 1.03195312 1.69328125 0 1 C0 0.67 0 0.34 0 0 Z " fill="#000000" transform="translate(427,221)"/>
<path d="M0 0 C3.64248888 0.79578912 6.24837639 1.86356915 9.50073242 3.65478516 C10.59675781 4.25081543 11.6927832 4.8468457 12.82202148 5.4609375 C14.0027236 6.11663071 15.18338655 6.77239443 16.36401367 7.42822266 C17.61045552 8.1098744 18.857539 8.79035405 20.10522461 9.46972656 C22.69125149 10.87906112 25.27446516 12.29335809 27.85571289 13.71142578 C33.68890112 16.91127464 39.55885413 20.04212512 45.42651367 23.17822266 C46.55790771 23.7848877 47.68930176 24.39155273 48.85498047 25.01660156 C55.2705155 28.45549692 61.69529695 31.87620643 68.12963867 35.27978516 C69.5674657 36.04101278 71.00529123 36.80224324 72.44311523 37.56347656 C75.18314392 39.01394648 77.92490226 40.4610714 80.66772461 41.90625 C83.758591 43.53800988 86.84076462 45.18495596 89.91430664 46.84912109 C91.09926744 47.49068757 92.28582434 48.12931394 93.47387695 48.76513672 C95.1741556 49.68027427 96.86312228 50.61633487 98.55151367 51.55322266 C99.51831055 52.08431641 100.48510742 52.61541016 101.48120117 53.16259766 C103.67651367 54.80322266 103.67651367 54.80322266 104.49682617 57.00634766 C104.55612305 57.59931641 104.61541992 58.19228516 104.67651367 58.80322266 C94.53086103 65.4970649 84.15112921 71.7968041 73.75366211 78.08813477 C65.70623637 82.95837731 57.6816208 87.86357428 49.67651367 92.80322266 C40.26098964 98.61058934 30.82174096 104.37745103 21.36401367 110.11572266 C20.75920166 110.48270264 20.15438965 110.84968262 19.53125 111.2277832 C15.91438424 113.42187969 12.29694182 115.61500903 8.67651367 117.80322266 C7.41738159 118.68337036 7.41738159 118.68337036 6.1328125 119.58129883 C3.67651367 120.80322266 3.67651367 120.80322266 1.30224609 120.7121582 C-2.08848292 119.53840794 -5.18938094 117.96408095 -8.33520508 116.26025391 C-9.01179672 115.90037384 -9.68838837 115.54049377 -10.38548279 115.16970825 C-12.59733591 113.99120577 -14.80413991 112.80357016 -17.01098633 111.61572266 C-18.55676173 110.78974813 -20.10282602 109.96431402 -21.64916992 109.1394043 C-26.21195431 106.70268593 -30.76838944 104.25427413 -35.32348633 101.80322266 C-36.53163371 101.15376545 -37.7398025 100.50434808 -38.94799805 99.85498047 C-43.13978073 97.60079672 -47.33063727 95.34495337 -51.51757812 93.08178711 C-57.5610973 89.81720123 -63.61867186 86.58082074 -69.69067383 83.36962891 C-70.40764435 82.9901561 -71.12461487 82.61068329 -71.86331177 82.2197113 C-75.37050081 80.36375165 -78.87914478 78.51064504 -82.39038086 76.66235352 C-89.49527612 72.9113222 -96.4955019 69.04460593 -103.32348633 64.80322266 C-102.75095517 61.83074535 -102.59506657 61.02311976 -100.14770508 59.04150391 C-99.11258789 58.40599609 -98.0774707 57.77048828 -97.01098633 57.11572266 C-96.11138184 56.55703491 -96.11138184 56.55703491 -95.19360352 55.98706055 C-92.91225324 54.57781375 -90.61820114 53.19060296 -88.32348633 51.80322266 C-86.24126298 50.53530891 -84.15924767 49.26705348 -82.07739258 47.99853516 C-77.90353431 45.45805479 -73.72574189 42.9241649 -69.54508972 40.3948822 C-62.1159771 35.89960037 -54.71310889 31.3632117 -47.32348633 26.80322266 C-36.65336579 20.22030363 -25.94615756 13.70053265 -15.2199707 7.20947266 C-13.54064453 6.19240234 -13.54064453 6.19240234 -11.82739258 5.15478516 C-10.83553955 4.5548877 -9.84368652 3.95499023 -8.82177734 3.33691406 C-3.08829048 -0.18285184 -3.08829048 -0.18285184 0 0 Z " fill="#000000" transform="translate(469.323486328125,4.19677734375)"/>
<path d="M0 0 C15.345 -0.12375 15.345 -0.12375 31 -0.25 C35.79337891 -0.30462402 35.79337891 -0.30462402 40.68359375 -0.36035156 C43.26822237 -0.37205387 45.85285848 -0.38224202 48.4375 -0.390625 C49.73751953 -0.41108887 51.03753906 -0.43155273 52.37695312 -0.45263672 C65.87625529 -0.45766627 79.75786418 1.4448367 90 11 C96.1549359 18.53979647 96.87581051 26.57672235 96 36 C94.29436023 43.3740833 90.7098506 48.15625033 85 53 C85.680625 53.515625 86.36125 54.03125 87.0625 54.5625 C95.11878729 61.24750435 100.18289244 66.84645454 101.4140625 77.625 C101.77338368 87.00517392 100.5123805 93.91866718 94.203125 101.0234375 C82.60658269 112.01695961 68.06150283 112.30577303 52.9296875 112.1953125 C51.56974451 112.19236472 50.20979924 112.19032882 48.84985352 112.18920898 C43.85820063 112.17880678 38.86659661 112.15088456 33.875 112.125 C17.106875 112.063125 17.106875 112.063125 0 112 C0 75.04 0 38.08 0 0 Z M30 24 C30 30.6 30 37.2 30 44 C34.20872148 44.08105241 38.4158763 44.14053316 42.625 44.1875 C43.81480469 44.21263672 45.00460938 44.23777344 46.23046875 44.26367188 C53.2672891 44.32263964 58.56271318 44.32271059 63.875 39.1875 C65.44116749 36.14217432 65.54236086 34.38975539 65 31 C62.92564959 27.57454012 60.88223414 25.29407805 57 24 C54.93501108 23.91684248 52.8674211 23.89264122 50.80078125 23.90234375 C48.98803711 23.90717773 48.98803711 23.90717773 47.13867188 23.91210938 C45.87603516 23.92048828 44.61339844 23.92886719 43.3125 23.9375 C42.03826172 23.94201172 40.76402344 23.94652344 39.45117188 23.95117188 C36.3007613 23.96297117 33.15037481 23.98090682 30 24 Z M30 67 C30 73.93 30 80.86 30 88 C34.46632402 88.06902733 38.93078355 88.12870934 43.3972168 88.16479492 C44.91518438 88.17984353 46.43310876 88.20028738 47.95092773 88.22631836 C50.13796677 88.26287653 52.32442896 88.27976523 54.51171875 88.29296875 C56.48338013 88.31653442 56.48338013 88.31653442 58.49487305 88.34057617 C63.05179393 87.89780229 65.56684295 86.38373784 68.8125 83.25 C70.54568109 79.96607794 70.44932633 77.65880015 70 74 C67.5741154 69.95685899 65.43991512 68.3833987 61 67 C57.51549144 66.72559797 57.51549144 66.72559797 53.73046875 66.8046875 C53.04946609 66.8075174 52.36846344 66.81034729 51.66682434 66.81326294 C49.50686545 66.82439475 47.34733206 66.84948543 45.1875 66.875 C43.71680289 66.88503889 42.24609924 66.89416315 40.77539062 66.90234375 C37.18330075 66.9226037 33.59212268 66.96176333 30 67 Z " fill="#000000" transform="translate(95,572)"/>
<path d="M0 0 C23 0 23 0 27.59765625 3.96875 C28.93359375 6.60473633 28.93359375 6.60473633 30.0625 9.5 C31.04019696 11.51566973 32.02077512 13.52994392 33.00390625 15.54296875 C33.48230957 16.59919434 33.96071289 17.65541992 34.45361328 18.74365234 C37.09841146 24.31301106 40.32980827 29.53063748 43.5 34.8125 C47.42030795 41.49450678 51.27062597 48.20946652 55 55 C55.66 55 56.32 55 57 55 C57.37060547 54.3287207 57.74121094 53.65744141 58.12304688 52.96582031 C67.92856113 35.22108002 77.90288486 17.58039101 88 0 C95.59 0 103.18 0 111 0 C112.13335166 2.26670332 112.12343812 3.48388875 112.12025452 5.99893188 C112.12231651 7.25255775 112.12231651 7.25255775 112.12442017 8.5315094 C112.11902725 9.90930824 112.11902725 9.90930824 112.11352539 11.31494141 C112.11367142 12.28083694 112.11381744 13.24673248 112.1139679 14.24189758 C112.11326937 17.44514181 112.10547978 20.64832839 112.09765625 23.8515625 C112.09579186 26.06830819 112.09436805 28.28505429 112.09336853 30.50180054 C112.08954504 36.34453463 112.07971617 42.18724397 112.06866455 48.02996826 C112.05844682 53.98872544 112.05387013 59.9474866 112.04882812 65.90625 C112.03809377 77.6041793 112.02049832 89.30208373 112 101 C103.42 101 94.84 101 86 101 C85.67 84.83 85.34 68.66 85 52 C80.3772941 60.34438998 80.3772941 60.34438998 75.75756836 68.69042969 C74.49856078 70.95983243 73.23120233 73.22325167 71.95629883 75.48364258 C70.64738979 77.81011256 69.41156174 80.1452042 68.19018555 82.5222168 C63.88731686 90.62644451 63.88731686 90.62644451 59.46484375 92.48828125 C58.30082031 92.43027344 57.13679688 92.37226562 55.9375 92.3125 C54.77089844 92.30863281 53.60429687 92.30476562 52.40234375 92.30078125 C47.2160032 90.31794382 45.65840325 86.70459055 43 82 C42.38680908 80.96286865 41.77361816 79.9257373 41.1418457 78.85717773 C39.13061877 75.44045516 37.155066 72.00442752 35.1875 68.5625 C34.50092223 67.36768267 33.81407487 66.17302021 33.12695312 64.97851562 C28.18789213 56.37578427 28.18789213 56.37578427 27 54 C26.67 69.51 26.34 85.02 26 101 C17.42 101 8.84 101 0 101 C0 67.67 0 34.34 0 0 Z " fill="#000000" transform="translate(173,719)"/>
<path d="M0 0 C9.9 0 19.8 0 30 0 C30.33 12.54 30.66 25.08 31 38 C34.96 35.525 34.96 35.525 39 33 C44.18826405 31.07043213 48.9091096 30.64448569 54.375 30.6875 C55.12450928 30.69313965 55.87401855 30.6987793 56.64624023 30.70458984 C65.89956325 30.90756207 73.34374704 33.30170755 80 40 C88.94778416 52.02296497 89.16624678 64.92158756 89.09765625 79.3515625 C89.0962413 80.49160736 89.09482635 81.63165222 89.09336853 82.8062439 C89.08781479 86.41252373 89.07527107 90.01873924 89.0625 93.625 C89.05747902 96.08463451 89.05291716 98.54427001 89.04882812 101.00390625 C89.03871561 107.00264831 89.01913137 113.00125296 89 119 C79.1 119 69.2 119 59 119 C58.95101562 115.54402344 58.90203125 112.08804688 58.8515625 108.52734375 C58.7975018 105.16800734 58.74021424 101.80874031 58.68261719 98.44946289 C58.64441221 96.12073976 58.60954474 93.79195933 58.578125 91.46313477 C58.53229038 88.1093299 58.47432575 84.75591665 58.4140625 81.40234375 C58.40251129 80.36665756 58.39096008 79.33097137 58.37905884 78.26390076 C58.24959673 71.87547387 58.04660303 66.11083661 54.4375 60.625 C50.7603311 58.17355406 47.38232276 57.70545044 43 58 C38.38498938 59.28549604 35.67402775 60.95634413 33.0625 65 C31.62959335 69.04585406 30.87553052 72.47180652 30.79467773 76.76855469 C30.77473251 77.70922791 30.75478729 78.64990112 30.73423767 79.61907959 C30.71752518 80.62650208 30.70081268 81.63392456 30.68359375 82.671875 C30.66281265 83.70942932 30.64203156 84.74698364 30.62062073 85.815979 C30.55528592 89.12725258 30.49631483 92.43860482 30.4375 95.75 C30.39429951 97.99610185 30.35068473 100.24219578 30.30664062 102.48828125 C30.1988421 107.99210807 30.09964877 113.49599543 30 119 C20.1 119 10.2 119 0 119 C0 79.73 0 40.46 0 0 Z " fill="#000000" transform="translate(564,565)"/>
<path d="M0 0 C9.9 0 19.8 0 30 0 C30.33 19.47 30.66 38.94 31 59 C36.5996875 52.3175 36.5996875 52.3175 42.3125 45.5 C49.72242529 37.41785048 56.25255242 31.05933363 67.5859375 30.20703125 C76.0885846 29.86277023 84.60355144 30.70795553 93 32 C91.6094672 35.11159151 89.97662583 37.30433009 87.62109375 39.7578125 C86.95118408 40.46123779 86.28127441 41.16466309 85.59106445 41.8894043 C84.88038818 42.62715088 84.16971191 43.36489746 83.4375 44.125 C81.98100269 45.65421667 80.52526897 47.184161 79.0703125 48.71484375 C78.3680957 49.45202637 77.66587891 50.18920898 76.94238281 50.94873047 C71.41859951 56.78216778 66.07865009 62.77455795 61 69 C62.33441371 71.82749964 63.83769351 74.29610568 65.6953125 76.80859375 C66.23889404 77.54585693 66.78247559 78.28312012 67.3425293 79.04272461 C67.93074463 79.83300049 68.51895996 80.62327637 69.125 81.4375 C69.73448486 82.26064697 70.34396973 83.08379395 70.97192383 83.93188477 C77.70054099 92.99215882 84.54827568 101.96219646 91.4128418 110.91967773 C91.936604 111.60618408 92.46036621 112.29269043 93 113 C93.56307861 113.70777588 94.12615723 114.41555176 94.70629883 115.14477539 C96 117 96 117 96 119 C62.01191345 121.59786645 62.01191345 121.59786645 55.25390625 116.08203125 C52.58330628 113.05310168 50.72782522 109.67810007 49.02392578 106.03173828 C47.3692164 102.74835929 45.0545102 100.03270596 42.75 97.1875 C39 92.2606383 39 92.2606383 39 90 C35.07300382 92.58575702 31.57903214 94.97226245 30.24609375 99.64013672 C29.99056124 102.60563202 29.9433956 105.46024114 30 108.4375 C30 111.923125 30 115.40875 30 119 C20.1 119 10.2 119 0 119 C0 79.73 0 40.46 0 0 Z " fill="#000000" transform="translate(776,565)"/>
<path d="M0 0 C8.91 0 17.82 0 27 0 C27 11.22 27 22.44 27 34 C28.98 32.68 30.96 31.36 33 30 C41.99707857 26.16337113 53.67598183 26.60093832 62.6875 30.1875 C72.29180323 34.91114232 77.92171067 41.7920338 82.109375 51.59765625 C86.3473613 64.85135868 84.91390673 79.21699419 78.71484375 91.55859375 C74.296561 98.85675996 67.50120268 104.87013221 59.2890625 107.50390625 C50.46038855 109.41728781 40.36195233 110.29782835 32.0859375 106.0078125 C30.25243579 104.81733983 28.54947093 103.54947093 27 102 C26.67 103.65 26.34 105.3 26 107 C17.42 107 8.84 107 0 107 C0 71.69 0 36.38 0 0 Z M31.55859375 54.43359375 C26.90214048 59.75335945 26.64414233 64.10182106 26.7265625 70.91796875 C27.18161772 76.04709111 28.65696172 79.91202665 32.54296875 83.375 C36.9987475 86.31153153 40.7620786 86.66513288 46 86 C51.32535195 83.33732403 54.53325352 79.66686621 56.75 74.125 C57.52956983 67.49865641 57.32388875 61.89234824 54 56 C50.79472989 52.41315011 48.18738262 50.74966557 43.5 50 C38.53954425 49.72534389 35.15130756 50.86035265 31.55859375 54.43359375 Z " fill="#000000" transform="translate(649,713)"/>
<path d="M0 0 C9.8500582 7.49947613 15.94554949 16.84891227 18.25 29.0625 C19.66593573 42.98586802 17.19022801 55.72186644 8.3046875 66.83984375 C-0.60452185 76.9714795 -11.93821389 81.81177055 -25.375 82.75 C-39.4561765 82.87772042 -52.14776294 79.5152002 -62.53125 69.71484375 C-72.02117581 59.67606029 -75.91990192 48.32887699 -75.62890625 34.61328125 C-74.35818343 20.28343771 -68.45017834 9.39323421 -57.46875 0.14453125 C-41.21002258 -11.05056708 -16.27542132 -10.64724419 0 0 Z M-41.625 24.0625 C-45.03222551 29.2950249 -45.90600808 34.59030632 -45.375 40.75 C-43.72133207 48.24318281 -40.84459916 52.43693389 -34.375 56.75 C-29.09488916 57.96848712 -25.35067736 57.97128454 -20.375 55.75 C-15.90190638 51.94832408 -12.56840119 47.74585501 -11.51953125 41.890625 C-11.08071643 35.39142177 -11.66778219 29.24690916 -15.375 23.75 C-19.36590409 19.82312111 -22.49124339 17.5996839 -28.125 17.4375 C-34.29280175 17.50859858 -37.37094799 19.69027987 -41.625 24.0625 Z " fill="#000000" transform="translate(285.375,603.25)"/>
<path d="M0 0 C8.49403064 7.15003845 11.97466321 15.45758459 13.5625 26.25 C13.64419319 28.1586208 13.68042715 30.06961722 13.67602539 31.97998047 C13.67591209 33.63101273 13.67591209 33.63101273 13.67579651 35.31539917 C13.67063522 36.48748932 13.66547394 37.65957947 13.66015625 38.8671875 C13.6587413 40.07948029 13.65732635 41.29177307 13.65586853 42.540802 C13.65028345 46.40222673 13.63773361 50.26359288 13.625 54.125 C13.61998308 56.74739499 13.6154205 59.3697909 13.61132812 61.9921875 C13.60117099 68.4114989 13.58159248 74.8306841 13.5625 81.25 C4.3225 81.25 -4.9175 81.25 -14.4375 81.25 C-14.9325 77.785 -14.9325 77.785 -15.4375 74.25 C-15.87320313 74.65992188 -16.30890625 75.06984375 -16.7578125 75.4921875 C-23.93390836 81.98484566 -30.8809573 83.14368494 -40.4375 83.25 C-49.58532295 82.4846443 -57.03461168 80.17167428 -63.3125 73.3125 C-68.50338102 66.88288601 -70.02335019 60.05270665 -69.19140625 51.8125 C-67.88710784 44.97936143 -64.89337306 39.77069608 -59.328125 35.4140625 C-49.19680436 29.17618326 -37.88174338 29.08340281 -26.375 29.1875 C-24.93350586 29.19426758 -24.93350586 29.19426758 -23.46289062 29.20117188 C-21.12102578 29.21282294 -18.77929819 29.22917975 -16.4375 29.25 C-18.14380771 25.02437915 -19.46012637 21.93079129 -23.26953125 19.27734375 C-32.9902076 16.12501591 -42.36833414 18.20942854 -51.4375 22.25 C-53.10224362 22.92145431 -54.76838242 23.58949358 -56.4375 24.25 C-57.9469588 21.15034597 -59.44340667 18.04458597 -60.9375 14.9375 C-61.36675781 14.05642578 -61.79601562 13.17535156 -62.23828125 12.26757812 C-62.84736328 10.99624023 -62.84736328 10.99624023 -63.46875 9.69921875 C-63.84580078 8.91893311 -64.22285156 8.13864746 -64.61132812 7.3347168 C-65.4375 5.25 -65.4375 5.25 -65.4375 2.25 C-46.86404911 -8.41334592 -18.72521092 -12.78624477 0 0 Z M-38.4375 49.25 C-40.25980326 51.62691729 -40.46186639 52.76267228 -40.3125 55.75 C-39.21530087 58.88485465 -38.08624208 60.24554654 -35.4375 62.25 C-30.60314652 63.75402108 -27.09858685 63.11443474 -22.4375 61.25 C-19.90064312 59.0440375 -17.94261778 57.26023556 -16.4375 54.25 C-16.3685528 52.87657169 -16.35282292 51.49997898 -16.375 50.125 C-16.395625 48.84625 -16.41625 47.5675 -16.4375 46.25 C-18.97982342 46.16847656 -21.51949202 46.10926284 -24.0625 46.0625 C-25.13177734 46.02479492 -25.13177734 46.02479492 -26.22265625 45.98632812 C-31.04678122 45.91994108 -34.23693136 46.62224701 -38.4375 49.25 Z " fill="#000000" transform="translate(439.4375,602.75)"/>
<path d="M0 0 C8.31218508 6.85755269 12.44448358 13.54486054 14.5 24.0625 C14.87201399 28.65720135 14.851833 33.21697636 14.79296875 37.82421875 C14.78872391 39.09602493 14.78447906 40.36783112 14.78010559 41.67817688 C14.76626412 45.02052699 14.73942643 48.36223341 14.70599365 51.70440674 C14.67502059 55.13035495 14.66137703 58.55637226 14.64648438 61.98242188 C14.61614115 68.67613706 14.55739327 75.36874473 14.5 82.0625 C5.26 82.0625 -3.98 82.0625 -13.5 82.0625 C-13.83 80.0825 -14.16 78.1025 -14.5 76.0625 C-15.03367187 76.47242188 -15.56734375 76.88234375 -16.1171875 77.3046875 C-24.89705905 83.65414478 -32.62497896 84.68455749 -43.31640625 83.6015625 C-50.85876714 82.32445108 -57.14582659 79.54415373 -62.5 74.0625 C-67.86094038 66.40893881 -68.1137897 59.19122682 -67.5 50.0625 C-66.1436817 44.06052455 -62.45775919 39.06382491 -57.41015625 35.6484375 C-44.57433533 28.53360646 -29.70286353 29.80064037 -15.5 30.0625 C-17.76723975 24.05922153 -17.76723975 24.05922153 -22.5 20.0625 C-31.76715226 16.97344925 -40.86201135 19.26953704 -49.5 23.0625 C-51.16506701 23.73315199 -52.83128619 24.40097417 -54.5 25.0625 C-55.794174 22.50123936 -57.08540784 19.93856642 -58.375 17.375 C-58.73980469 16.65376953 -59.10460937 15.93253906 -59.48046875 15.18945312 C-61.3179242 11.53124636 -63.06138502 7.9013305 -64.5 4.0625 C-47.14405761 -7.95315242 -18.63173016 -11.41193473 0 0 Z M-37.5 50.0625 C-39.06430248 53.19110495 -38.85627284 55.61852925 -38.5 59.0625 C-36.325981 61.88872471 -34.67567777 62.87274835 -31.15234375 63.44140625 C-25.44565732 63.70823473 -21.92956472 62.93836913 -17.5 59.0625 C-15.36413322 55.85869983 -15.26867825 55.04310033 -15.375 51.375 C-15.40207031 50.16263672 -15.40207031 50.16263672 -15.4296875 48.92578125 C-15.45289063 48.31089844 -15.47609375 47.69601562 -15.5 47.0625 C-18.04232342 46.98097656 -20.58199202 46.92176284 -23.125 46.875 C-24.19427734 46.83729492 -24.19427734 46.83729492 -25.28515625 46.79882812 C-30.09868692 46.73258688 -33.32231506 47.40806326 -37.5 50.0625 Z " fill="#000000" transform="translate(738.5,601.9375)"/>
<path d="M0 0 C8.91 0 17.82 0 27 0 C27.33 17.82 27.66 35.64 28 54 C37.64444921 43.74895315 37.64444921 43.74895315 46.8359375 33.1015625 C50.88020853 29.10364415 54.41409216 28.15623701 59.9765625 28.0234375 C62.86699135 28.05037649 65.73998463 28.20521784 68.625 28.375 C70.12094347 28.42526474 71.61705096 28.47087385 73.11328125 28.51171875 C76.74564803 28.62088445 80.37174896 28.79279888 84 29 C82.62076149 32.0768608 81.02099102 34.25895322 78.69140625 36.6875 C78.03140625 37.38109619 77.37140625 38.07469238 76.69140625 38.78930664 C75.98886719 39.51883545 75.28632813 40.24836426 74.5625 41 C73.11525034 42.5189264 71.66863948 44.03846169 70.22265625 45.55859375 C69.50867676 46.30737793 68.79469727 47.05616211 68.05908203 47.82763672 C65.17123447 50.87436041 62.32917758 53.96135046 59.5 57.0625 C58.6234375 58.02285156 57.746875 58.98320313 56.84375 59.97265625 C56.2353125 60.64167969 55.626875 61.31070313 55 62 C58.0498433 67.7005713 61.66785488 72.63468005 65.6875 77.6875 C66.94087381 79.2806448 68.19347712 80.87439607 69.4453125 82.46875 C70.0527832 83.24089844 70.66025391 84.01304687 71.28613281 84.80859375 C87 104.9008547 87 104.9008547 87 107 C55.84450028 109.42465618 55.84450028 109.42465618 49.640625 104.26953125 C47.1864523 101.43699019 45.48132088 98.29212209 43.92675781 94.89501953 C42.43025407 91.83499265 40.38763622 89.32267709 38.3125 86.625 C37.20548187 85.08537959 36.10010859 83.54456506 35 82 C31.57665604 84.20562197 28.51838065 86.24240684 27.32861328 90.27636719 C27.08876326 92.83713377 27.03087469 95.30207134 27.0625 97.875 C27.041875 100.88625 27.02125 103.8975 27 107 C18.09 107 9.18 107 0 107 C0 71.69 0 36.38 0 0 Z " fill="#000000" transform="translate(397,713)"/>
<path d="M0 0 C0.99306152 0.00539795 1.98612305 0.0107959 3.00927734 0.01635742 C13.41656697 0.2288025 23.94511384 1.59840987 32.8125 7.4375 C32.13762263 12.25669471 30.23284091 16.35633866 28.25 20.75 C27.92064453 21.49056641 27.59128906 22.23113281 27.25195312 22.99414062 C26.44332877 24.81061562 25.62852884 26.62433931 24.8125 28.4375 C21.67025885 27.87113418 18.82828999 27.14538957 15.875 25.9375 C8.10483265 22.9767485 -1.04557326 21.75264844 -8.875 24.9375 C-10.0196875 25.68 -10.0196875 25.68 -11.1875 26.4375 C-10.8575 27.7575 -10.5275 29.0775 -10.1875 30.4375 C-5.02745608 31.96811977 0.1275541 33.33754225 5.421875 34.31640625 C15.86980878 36.26409723 24.53994226 38.16494226 32.3125 45.9375 C36.37624763 52.71041271 36.67272687 59.74073329 35.8125 67.4375 C33.33858184 75.74526238 28.070232 81.52060173 20.56640625 85.68359375 C3.60621053 93.28644011 -17.02495723 91.37917645 -34.1875 85.4375 C-36.99216384 84.24359548 -39.53692006 82.95211711 -42.1875 81.4375 C-41.25416423 78.89423553 -40.31598392 76.35293412 -39.375 73.8125 C-39.11396484 73.09964844 -38.85292969 72.38679687 -38.58398438 71.65234375 C-37.01785219 67.43732134 -35.28268176 63.42652474 -33.1875 59.4375 C-32.135625 59.86869141 -32.135625 59.86869141 -31.0625 60.30859375 C-28.1279836 61.46086989 -25.17632029 62.49737279 -22.1875 63.5 C-21.176875 63.84160156 -20.16625 64.18320312 -19.125 64.53515625 C-14.22022837 66.04180817 -9.82429684 66.59499535 -4.6875 66.625 C-3.5840625 66.63917969 -2.480625 66.65335938 -1.34375 66.66796875 C1.79502023 66.43877637 3.98433214 65.77243744 6.8125 64.4375 C6.4825 62.7875 6.1525 61.1375 5.8125 59.4375 C5.10230713 59.30174561 4.39211426 59.16599121 3.66040039 59.02612305 C0.39735885 58.39868655 -2.86379516 57.7619113 -6.125 57.125 C-7.24197266 56.91166016 -8.35894531 56.69832031 -9.50976562 56.47851562 C-20.73588906 54.27279636 -29.4238486 52.34239208 -37.1875 43.4375 C-40.86213976 37.7213937 -40.89074356 31.02679584 -40.1875 24.4375 C-38.41790486 16.5909231 -34.30785273 10.52761602 -27.5625 6.1875 C-19.15709945 1.08114745 -9.64966986 -0.10156678 0 0 Z " fill="#000000" transform="translate(511.1875,595.5625)"/>
<path d="M0 0 C9.48350419 6.63845293 14.57928189 14.78825294 17 26 C17 31.28 17 36.56 17 42 C-0.49 42.33 -17.98 42.66 -36 43 C-32.06590171 48.90114743 -30.42135298 50.98835491 -24 53 C-16.91879382 54.09987321 -10.44418496 52.44718405 -4.625 48.3125 C-4.08875 47.879375 -3.5525 47.44625 -3 47 C-1 47 -1 47 0.515625 48.50390625 C1.08796875 49.18324219 1.6603125 49.86257813 2.25 50.5625 C2.86488281 51.28566406 3.47976563 52.00882813 4.11328125 52.75390625 C5.04720703 53.86572266 5.04720703 53.86572266 6 55 C7.14473463 56.33427675 8.29046728 57.66769833 9.4375 59 C10.283125 59.99 11.12875 60.98 12 62 C10.50368581 65.9267436 8.32413809 67.42598801 4.8125 69.625 C3.42998047 70.51058594 3.42998047 70.51058594 2.01953125 71.4140625 C-8.83504283 77.11517127 -24.3147911 77.53591386 -36 74 C-47.5533623 69.53792463 -55.50075864 63.67637167 -60.9375 52.25 C-65.20965151 42.34440124 -65.63786312 30.57597042 -62.03515625 20.37109375 C-57.53408466 10.06109203 -51.34575961 2.75363867 -41.15234375 -2.17578125 C-28.02478146 -7.20285138 -12.33156019 -7.09322334 0 0 Z M-33 19 C-36.00508738 22.62058376 -36.00508738 22.62058376 -37 27 C-27.43 27 -17.86 27 -8 27 C-10.78597454 20.07709989 -10.78597454 20.07709989 -16 16 C-22.77876539 13.74041154 -27.58784067 14.3258624 -33 19 Z " fill="#000000" transform="translate(617,746)"/>
<path d="M0 0 C9.48350419 6.63845293 14.57928189 14.78825294 17 26 C17 31.28 17 36.56 17 42 C-0.49 42.33 -17.98 42.66 -36 43 C-32.06590171 48.90114743 -30.42135298 50.98835491 -24 53 C-16.91879382 54.09987321 -10.44418496 52.44718405 -4.625 48.3125 C-4.08875 47.879375 -3.5525 47.44625 -3 47 C-1 47 -1 47 0.515625 48.50390625 C1.08796875 49.18324219 1.6603125 49.86257813 2.25 50.5625 C2.86488281 51.28566406 3.47976563 52.00882813 4.11328125 52.75390625 C5.04720703 53.86572266 5.04720703 53.86572266 6 55 C7.14473463 56.33427675 8.29046728 57.66769833 9.4375 59 C10.283125 59.99 11.12875 60.98 12 62 C10.50368581 65.9267436 8.32413809 67.42598801 4.8125 69.625 C3.42998047 70.51058594 3.42998047 70.51058594 2.01953125 71.4140625 C-8.83504283 77.11517127 -24.3147911 77.53591386 -36 74 C-47.5533623 69.53792463 -55.50075864 63.67637167 -60.9375 52.25 C-65.20965151 42.34440124 -65.63786312 30.57597042 -62.03515625 20.37109375 C-57.53408466 10.06109203 -51.34575961 2.75363867 -41.15234375 -2.17578125 C-28.02478146 -7.20285138 -12.33156019 -7.09322334 0 0 Z M-33 19 C-36.00508738 22.62058376 -36.00508738 22.62058376 -37 27 C-27.43 27 -17.86 27 -8 27 C-10.78597454 20.07709989 -10.78597454 20.07709989 -16 16 C-22.77876539 13.74041154 -27.58784067 14.3258624 -33 19 Z " fill="#000000" transform="translate(365,746)"/>
<path d="M0 0 C9.9 0 19.8 0 30 0 C30 39.27 30 78.54 30 119 C20.1 119 10.2 119 0 119 C0 79.73 0 40.46 0 0 Z " fill="#000000" transform="translate(322,565)"/>
<path d="M0 0 C8.91 0 17.82 0 27 0 C27 6.6 27 13.2 27 20 C32.61 20 38.22 20 44 20 C44 26.93 44 33.86 44 41 C38.39 41 32.78 41 27 41 C27.09697686 45.07558002 27.19972884 49.15036748 27.31738281 53.2253418 C27.3556435 54.61131907 27.39050156 55.99739465 27.421875 57.38354492 C27.46758699 59.3770164 27.52658925 61.37016914 27.5859375 63.36328125 C27.6173584 64.56251221 27.6487793 65.76174316 27.68115234 66.99731445 C27.78429494 70.17882706 27.78429494 70.17882706 30 73 C34.89890173 74.48106331 38.2088673 73.47200874 43 72 C44.066245 74.90826592 45.09853265 77.82748162 46.125 80.75 C46.42792969 81.575 46.73085938 82.4 47.04296875 83.25 C47.32011719 84.04921875 47.59726562 84.8484375 47.8828125 85.671875 C48.14465332 86.4050293 48.40649414 87.13818359 48.67626953 87.89355469 C49.09353043 90.6085826 48.53820975 91.75852197 47 94 C36.24085401 98.75404125 24.85439552 97.5414765 14 94 C7.68059393 90.84029696 3.20569561 85.5372212 0.93115234 78.86425781 C-0.05050819 74.79039233 -0.25595535 71.03578144 -0.1953125 66.87890625 C-0.1924826 66.13414536 -0.18965271 65.38938446 -0.18673706 64.62205505 C-0.17563917 62.26869899 -0.1505551 59.91573891 -0.125 57.5625 C-0.11495672 55.95638575 -0.10583324 54.35026546 -0.09765625 52.74414062 C-0.07573407 48.82927704 -0.04127761 44.9147054 0 41 C-3.63 41 -7.26 41 -11 41 C-11 34.07 -11 27.14 -11 20 C-7.37 20 -3.74 20 0 20 C0 13.4 0 6.8 0 0 Z " fill="#000000" transform="translate(498,725)"/>
<path d="M0 0 C8.91 0 17.82 0 27 0 C27 25.74 27 51.48 27 78 C18.09 78 9.18 78 0 78 C0 52.26 0 26.52 0 0 Z " fill="#000000" transform="translate(748,742)"/>
<path d="M0 0 C1.65 0 3.3 0 5 0 C5.25673633 3.8528435 5.47541189 7.70696142 5.6875 11.5625 C5.76033203 12.64853516 5.83316406 13.73457031 5.90820312 14.85351562 C6.23218262 21.12347169 6.24586394 25.54723519 3 31 C0.39983157 33.85077871 -2.20153387 35.91768909 -5.5078125 37.890625 C-6.84453003 38.69536255 -6.84453003 38.69536255 -8.20825195 39.51635742 C-9.17077881 40.08845947 -10.13330566 40.66056152 -11.125 41.25 C-13.20486324 42.50057698 -15.28427293 43.75190853 -17.36328125 45.00390625 C-18.44947754 45.65633301 -19.53567383 46.30875977 -20.65478516 46.98095703 C-26.23019573 50.34606033 -31.76989021 53.76874739 -37.3125 57.1875 C-38.40022705 57.85555664 -39.4879541 58.52361328 -40.60864258 59.21191406 C-45.58011859 62.26585827 -50.54068544 65.33344394 -55.46875 68.45703125 C-56.29463623 68.97563721 -57.12052246 69.49424316 -57.97143555 70.02856445 C-59.48130578 70.97756726 -60.98584043 71.93513859 -62.48364258 72.90307617 C-66.22027108 75.23898094 -68.60752742 76.41507006 -73 76 C-75.04760742 75.18408203 -75.04760742 75.18408203 -77.10546875 74.0078125 C-77.90726562 73.55889648 -78.7090625 73.10998047 -79.53515625 72.64746094 C-80.84806641 71.89384277 -80.84806641 71.89384277 -82.1875 71.125 C-84.14831671 70.02610307 -86.11066461 68.92993558 -88.07421875 67.8359375 C-89.1626709 67.2284668 -90.25112305 66.62099609 -91.37255859 65.99511719 C-99.06622898 61.73818215 -106.88057993 57.69844013 -114.66635132 53.61334229 C-118.79389729 51.44657161 -122.91433645 49.26747991 -127.02148438 47.06225586 C-128.34555124 46.3513705 -129.67108864 45.64321766 -130.99804688 44.93774414 C-132.91266488 43.91473281 -134.81667973 42.87424466 -136.71875 41.828125 C-137.81123047 41.23418945 -138.90371094 40.64025391 -140.02929688 40.02832031 C-143.92719543 37.36693461 -147.02531024 34.46106951 -148.80639648 29.96386719 C-149.0504274 27.48847662 -149.11147955 25.06631842 -149.09765625 22.578125 C-149.09443359 21.55332031 -149.09121094 20.52851562 -149.08789062 19.47265625 C-149.07951172 18.40917969 -149.07113281 17.34570312 -149.0625 16.25 C-149.05798828 15.17105469 -149.05347656 14.09210938 -149.04882812 12.98046875 C-149.03705727 10.32025617 -149.02061399 7.66015635 -149 5 C-147.0625 4.4375 -147.0625 4.4375 -145 4 C-143.37729339 5.62270661 -143.83385661 7.45930781 -143.7890625 9.69921875 C-143.76070313 10.66150391 -143.73234375 11.62378906 -143.703125 12.61523438 C-143.65154272 14.64370747 -143.60712796 16.67237705 -143.5703125 18.70117188 C-143.44726849 26.37942608 -143.44726849 26.37942608 -140 33 C-136.39199047 35.38391976 -132.57615926 37.24423137 -128.6875 39.125 C-126.40264455 40.27013977 -124.11880807 41.41731465 -121.8359375 42.56640625 C-120.68577148 43.1402002 -119.53560547 43.71399414 -118.35058594 44.30517578 C-113.44586958 46.78612455 -108.62853098 49.41469123 -103.8125 52.0625 C-102.9261084 52.54009766 -102.0397168 53.01769531 -101.12646484 53.50976562 C-96.36744519 56.08501142 -91.71919849 58.76889647 -87.125 61.62890625 C-86.15199951 62.21341553 -85.17899902 62.7979248 -84.17651367 63.40014648 C-82.31760898 64.51967267 -80.47973305 65.67517844 -78.66918945 66.87133789 C-76.03610733 68.42845045 -74.01562114 69.46299504 -71 70 C-66.82174106 68.73331146 -63.55639845 66.4861272 -60 64 C-58.44368817 63.04795583 -56.8826621 62.10356332 -55.31640625 61.16796875 C-53.73011791 60.17712051 -52.14554684 59.1835189 -50.5625 58.1875 C-44.30842372 54.2813053 -38.03898697 50.40350602 -31.73046875 46.5859375 C-31.11043472 46.21062393 -30.4904007 45.83531036 -29.85157776 45.44862366 C-27.38438999 43.95602644 -24.91675779 42.46418865 -22.44680786 40.97616577 C-18.61914011 38.67008745 -14.80768237 36.33888182 -11 34 C-10.09056641 33.46358887 -9.18113281 32.92717773 -8.24414062 32.37451172 C-4.84372497 30.28554927 -2.47543463 28.8146895 -0.4453125 25.3359375 C0.21124975 20.41747994 0.20812246 15.58037756 0.125 10.625 C0.11597656 9.60277344 0.10695313 8.58054687 0.09765625 7.52734375 C0.0742043 5.01798478 0.04138355 2.50911664 0 0 Z " fill="#000000" transform="translate(543,90)"/>
<path d="M0 0 C2.71992578 0.04467031 4.45149974 0.46744452 6.42773438 2.38623047 C14.10351591 12.02284432 17.34296909 20.54969126 17.03173828 32.88134766 C16.99222506 36.76397743 17.11343863 40.63168572 17.24609375 44.51171875 C17.27191528 45.28361038 17.29773682 46.05550201 17.32434082 46.8507843 C17.37758965 48.44189979 17.430997 50.03300998 17.48455811 51.62411499 C17.81734626 61.76842048 18.04219039 71.91264971 18.08984375 82.0625 C18.09994225 83.23329102 18.09994225 83.23329102 18.11024475 84.42773438 C18.11263544 86.2855182 18.06168774 88.14323909 18 90 C17 91 17 91 14.49975586 91.11352539 C13.41573486 91.10828857 12.33171387 91.10305176 11.21484375 91.09765625 C9.46010742 91.09282227 9.46010742 91.09282227 7.66992188 91.08789062 C6.43822266 91.07951172 5.20652344 91.07113281 3.9375 91.0625 C2.08415039 91.05573242 2.08415039 91.05573242 0.19335938 91.04882812 C-2.87114117 91.03699608 -5.93554721 91.02051173 -9 91 C-10.69174404 78.44697491 -10.5676071 65.6939332 -10.81784058 53.04663086 C-10.92547223 48.03506778 -11.15030754 43.04670417 -11.44921875 38.04296875 C-12.21514471 22.24087322 -10.09514589 12.38949722 0 0 Z M1 8 C-7.0881751 18.56414707 -6.72779362 28.33764598 -6.15576172 41.17089844 C-5.97663094 45.57448325 -5.87658241 49.97670301 -5.78515625 54.3828125 C-5.64493742 60.74913582 -5.50142518 67.11527105 -5.31640625 73.48046875 C-5.29965347 74.16597809 -5.2829007 74.85148743 -5.26564026 75.55776978 C-5.15256924 79.21465744 -4.72541456 82.37292721 -4 86 C1.61 86 7.22 86 13 86 C12.88027673 79.33283815 12.75596133 72.66578209 12.62768555 65.9987793 C12.58480631 63.73838531 12.54310651 61.47796858 12.50268555 59.2175293 C12.38713177 52.77932924 12.25191338 46.3422171 12.07821655 39.90530396 C12.02825499 38.0495134 11.98200355 36.19361678 11.94058228 34.33761597 C11.88373337 32.00514623 11.80212386 29.67509495 11.7109375 27.34375 C11.66888184 26.07853516 11.62682617 24.81332031 11.58349609 23.50976562 C10.56338376 17.37372592 7.2532107 12.51414387 3 8 C2.34 8 1.68 8 1 8 Z " fill="#000000" transform="translate(367,78)"/>
<path d="M0 0 C4.23933078 2.19715853 6.23227382 4.85317763 7.69140625 9.31640625 C8.45700638 14.70795648 7.73916888 18.69221467 4.69140625 23.31640625 C-0.93710407 28.39579361 -4.64536855 28.65914088 -12.09765625 28.6015625 C-17.40600785 28.13013955 -19.6279882 26.22881946 -23.12109375 22.25390625 C-25.55090798 18.28947251 -25.61753678 14.87331592 -25.30859375 10.31640625 C-21.17829984 -0.77017213 -10.75481306 -3.18458932 0 0 Z " fill="#000000" transform="translate(770.30859375,705.68359375)"/>
<path d="M0 0 C1.65 0 3.3 0 5 0 C5.87569373 8.72808964 6.11954979 17.36162934 6.1484375 26.12890625 C6.19201481 29.51134461 6.24105819 32.89358985 6.29450035 36.27587986 C6.34675694 39.77351859 6.37934705 43.26927728 6.37060547 46.76733398 C5.37505443 63.96111367 5.37505443 63.96111367 12.09658813 78.81199646 C13.85498359 80.36304605 13.85498359 80.36304605 16.74853516 82.27319336 C17.49151855 82.84303955 18.23450195 83.41288574 19 84 C18.83349609 86.24047852 18.83349609 86.24047852 18 88 C9.30019136 89.01286753 0.74507107 89.10621544 -8 89 C-8.80859375 87.26171875 -8.80859375 87.26171875 -9 85 C-7.41005885 83.54082037 -5.75012428 82.15750645 -4.0625 80.8125 C0.27219429 76.51247146 1.63547303 72.84520429 1.75610352 66.77587891 C1.65209201 62.37778402 1.44834315 57.98989138 1.20849609 53.59716797 C0.92293125 47.89213849 0.83795627 42.18342702 0.73828125 36.47265625 C0.71883957 35.36643921 0.69939789 34.26022217 0.67936707 33.1204834 C0.63992022 30.86102672 0.60069107 28.60156623 0.56167603 26.34210205 C0.46202139 20.84102801 0.34101956 15.34045468 0.21875 9.83984375 C0.19682083 8.84727066 0.17489166 7.85469757 0.15229797 6.83204651 C0.10184164 4.55469059 0.0510973 2.27734161 0 0 Z M4 78 C2.02 80.97 2.02 80.97 0 84 C4.455 83.505 4.455 83.505 9 83 C7.35 81.35 5.7 79.7 4 78 Z " fill="#000000" transform="translate(558,75)"/>
</svg>
